<?xml version="1.0" standalone="no"?><!DOCTYPE svg PUBLIC "-//W3C//DTD SVG 1.1//EN" "http://www.w3.org/Graphics/SVG/1.1/DTD/svg11.dtd"><svg t="1604738516082" class="icon" viewBox="0 0 1040 1024" version="1.1" xmlns="http://www.w3.org/2000/svg" p-id="3395" xmlns:xlink="http://www.w3.org/1999/xlink" width="203.125" height="200"><defs><style type="text/css"></style></defs><path d="M1029.249664 10.156399a35.880171 35.880171 0 0 0-50.02681 0l-63.029578 62.095807a66.461188 66.461188 0 0 0-18.115167-2.567872L542.988142 66.649577a72.577392 72.577392 0 0 0-50.563728 20.542973L20.636351 552.677656a68.935683 68.935683 0 0 0 0 98.512895l357.821248 352.265308a71.15339 71.15339 0 0 0 100.030275 0l475.47646-465.018219a69.262503 69.262503 0 0 0 20.449597-49.256448l-5.836072-349.930879a67.55837 67.55837 0 0 0-2.497839-17.741659l63.029578-62.095807A34.432825 34.432825 0 0 0 1029.249664 10.156399z m-125.078696 479.024793L428.367687 954.199411 70.639816 601.934103 543.011486 137.149327h311.109328l-109.134547 108.317497a111.912517 111.912517 0 0 0-52.688058-13.539687 117.655212 117.655212 0 1 0 101.290866 62.796135l110.581893-108.317497v302.775417z m-165.954545-141.232943a45.941559 45.941559 0 1 1-45.918214-46.455134 46.128313 46.128313 0 0 1 45.918214 46.455134z" p-id="3396"></path></svg>